# xmcd CD database file
#
# Track frame offsets:
#	187
#	18145
#	35872
#	53787
#
# Disc length: 952 seconds
#
# Revision: 0
# Processed by: cddbd v1.5.1PL0 Copyright (c) Steve Scherf et al.
# Submitted via: CDex 1.51
#
DISCID=2b03b604
DTITLE=酒井　法子 - ダイヤモンド☆ブルー
DYEAR=1990
DGENRE=JPop
TTITLE0=ダイヤモンド☆ブルー
TTITLE1=LonlyHeartによろしく
TTITLE2=ダイヤモンド☆ブルー（カラオケ）
TTITLE3=LonlyHeartによろしく（カラオケ）
EXTD=YEAR: 1990
EXTT0=
EXTT1=
EXTT2=
EXTT3=
PLAYORDER=
